<mxfile host="app.diagrams.net" modified="2020-05-07T15:07:11.929Z" agent="5.0 (Windows NT 10.0; Win64; x64) AppleWebKit/537.36 (KHTML, like Gecko) Chrome/78.0.3904.97 Safari/537.36" etag="bmb3UguOM5bSDuBDRZ8Y" version="13.0.9" type="github">
  <diagram id="ozWX-8Dkmfncpo7_wP8C" name="Page-1">
    <mxGraphModel dx="2062" dy="1154" grid="1" gridSize="10" guides="1" tooltips="1" connect="1" arrows="1" fold="1" page="1" pageScale="1" pageWidth="827" pageHeight="1169" math="0" shadow="0">
      <root>
        <mxCell id="0" />
        <mxCell id="1" parent="0" />
        <mxCell id="YcwsBy4JarNpGmMt0fvK-1" value="&lt;font style=&quot;font-size: 18px&quot;&gt;客户端&lt;/font&gt;" style="rounded=0;whiteSpace=wrap;html=1;" parent="1" vertex="1">
          <mxGeometry x="40" y="40" width="90" height="40" as="geometry" />
        </mxCell>
        <mxCell id="YcwsBy4JarNpGmMt0fvK-2" value="&lt;font style=&quot;font-size: 18px&quot;&gt;服务器&lt;/font&gt;" style="rounded=0;whiteSpace=wrap;html=1;" parent="1" vertex="1">
          <mxGeometry x="320" y="40" width="100" height="40" as="geometry" />
        </mxCell>
        <mxCell id="YcwsBy4JarNpGmMt0fvK-3" value="&lt;font style=&quot;font-size: 18px&quot;&gt;PHP web server&lt;/font&gt;" style="rounded=0;whiteSpace=wrap;html=1;" parent="1" vertex="1">
          <mxGeometry x="580" y="40" width="110" height="40" as="geometry" />
        </mxCell>
        <mxCell id="YcwsBy4JarNpGmMt0fvK-4" value="" style="endArrow=none;dashed=1;html=1;" parent="1" edge="1">
          <mxGeometry width="50" height="50" relative="1" as="geometry">
            <mxPoint x="80" y="980" as="sourcePoint" />
            <mxPoint x="80" y="80" as="targetPoint" />
          </mxGeometry>
        </mxCell>
        <mxCell id="YcwsBy4JarNpGmMt0fvK-5" value="" style="endArrow=none;dashed=1;html=1;" parent="1" edge="1">
          <mxGeometry width="50" height="50" relative="1" as="geometry">
            <mxPoint x="369.5" y="980" as="sourcePoint" />
            <mxPoint x="369.5" y="80" as="targetPoint" />
          </mxGeometry>
        </mxCell>
        <mxCell id="YcwsBy4JarNpGmMt0fvK-6" value="" style="endArrow=none;dashed=1;html=1;entryX=0.5;entryY=1;entryDx=0;entryDy=0;" parent="1" target="YcwsBy4JarNpGmMt0fvK-3" edge="1">
          <mxGeometry width="50" height="50" relative="1" as="geometry">
            <mxPoint x="639.5" y="980" as="sourcePoint" />
            <mxPoint x="635" y="90" as="targetPoint" />
          </mxGeometry>
        </mxCell>
        <mxCell id="YcwsBy4JarNpGmMt0fvK-8" value="游戏web地址" style="rounded=0;whiteSpace=wrap;html=1;" parent="1" vertex="1">
          <mxGeometry x="230" y="180" width="90" height="40" as="geometry" />
        </mxCell>
        <mxCell id="YcwsBy4JarNpGmMt0fvK-10" value="获取phpwebserver地址" style="text;html=1;align=center;verticalAlign=middle;resizable=0;points=[];autosize=1;" parent="1" vertex="1">
          <mxGeometry x="140" y="110" width="140" height="20" as="geometry" />
        </mxCell>
        <mxCell id="YcwsBy4JarNpGmMt0fvK-11" value="" style="endArrow=classic;html=1;exitX=1;exitY=0.5;exitDx=0;exitDy=0;entryX=0;entryY=0;entryDx=0;entryDy=0;" parent="1" source="YcwsBy4JarNpGmMt0fvK-1" target="YcwsBy4JarNpGmMt0fvK-8" edge="1">
          <mxGeometry width="50" height="50" relative="1" as="geometry">
            <mxPoint x="160" y="100" as="sourcePoint" />
            <mxPoint x="210" y="50" as="targetPoint" />
          </mxGeometry>
        </mxCell>
        <mxCell id="YcwsBy4JarNpGmMt0fvK-12" value="" style="endArrow=classic;html=1;" parent="1" edge="1">
          <mxGeometry width="50" height="50" relative="1" as="geometry">
            <mxPoint x="80" y="270" as="sourcePoint" />
            <mxPoint x="630" y="270" as="targetPoint" />
          </mxGeometry>
        </mxCell>
        <mxCell id="YcwsBy4JarNpGmMt0fvK-13" value="发送账号密码，或通过调用微信登录" style="text;html=1;align=center;verticalAlign=middle;resizable=0;points=[];autosize=1;" parent="1" vertex="1">
          <mxGeometry x="145" y="255" width="210" height="20" as="geometry" />
        </mxCell>
        <mxCell id="YcwsBy4JarNpGmMt0fvK-14" value="" style="endArrow=classic;html=1;" parent="1" edge="1">
          <mxGeometry width="50" height="50" relative="1" as="geometry">
            <mxPoint x="630" y="300" as="sourcePoint" />
            <mxPoint x="80" y="300" as="targetPoint" />
          </mxGeometry>
        </mxCell>
        <mxCell id="YcwsBy4JarNpGmMt0fvK-15" value="验证登录信息，在redis写下token，返回uid，token，服务器地址等信息" style="text;html=1;align=center;verticalAlign=middle;resizable=0;points=[];autosize=1;" parent="1" vertex="1">
          <mxGeometry x="219" y="275" width="390" height="20" as="geometry" />
        </mxCell>
        <mxCell id="YcwsBy4JarNpGmMt0fvK-16" value="" style="endArrow=classic;html=1;" parent="1" edge="1">
          <mxGeometry width="50" height="50" relative="1" as="geometry">
            <mxPoint x="80" y="380" as="sourcePoint" />
            <mxPoint x="630" y="380" as="targetPoint" />
            <Array as="points" />
          </mxGeometry>
        </mxCell>
        <mxCell id="YcwsBy4JarNpGmMt0fvK-17" value="获取必要的游戏配置" style="text;html=1;align=center;verticalAlign=middle;resizable=0;points=[];autosize=1;" parent="1" vertex="1">
          <mxGeometry x="167" y="360" width="120" height="20" as="geometry" />
        </mxCell>
        <mxCell id="YcwsBy4JarNpGmMt0fvK-20" value="" style="endArrow=classic;html=1;" parent="1" edge="1">
          <mxGeometry width="50" height="50" relative="1" as="geometry">
            <mxPoint x="80" y="470" as="sourcePoint" />
            <mxPoint x="370" y="470" as="targetPoint" />
          </mxGeometry>
        </mxCell>
        <mxCell id="YcwsBy4JarNpGmMt0fvK-21" value="建立socket连接，并发送uid和token" style="text;html=1;align=center;verticalAlign=middle;resizable=0;points=[];autosize=1;" parent="1" vertex="1">
          <mxGeometry x="78" y="453" width="200" height="20" as="geometry" />
        </mxCell>
        <mxCell id="YcwsBy4JarNpGmMt0fvK-22" value="" style="endArrow=classic;html=1;" parent="1" edge="1">
          <mxGeometry width="50" height="50" relative="1" as="geometry">
            <mxPoint x="370" y="510" as="sourcePoint" />
            <mxPoint x="80" y="510" as="targetPoint" />
          </mxGeometry>
        </mxCell>
        <mxCell id="YcwsBy4JarNpGmMt0fvK-23" value="验证uid token初始化玩家数据，登录成功" style="text;html=1;align=center;verticalAlign=middle;resizable=0;points=[];autosize=1;" parent="1" vertex="1">
          <mxGeometry x="95" y="490" width="230" height="20" as="geometry" />
        </mxCell>
        <mxCell id="YcwsBy4JarNpGmMt0fvK-25" value="" style="endArrow=classic;html=1;" parent="1" edge="1">
          <mxGeometry width="50" height="50" relative="1" as="geometry">
            <mxPoint x="80" y="640" as="sourcePoint" />
            <mxPoint x="370" y="640" as="targetPoint" />
          </mxGeometry>
        </mxCell>
        <mxCell id="YcwsBy4JarNpGmMt0fvK-26" value="选择游戏发送quickjoin协议加入游戏" style="text;html=1;align=center;verticalAlign=middle;resizable=0;points=[];autosize=1;" parent="1" vertex="1">
          <mxGeometry x="83" y="619" width="210" height="20" as="geometry" />
        </mxCell>
        <mxCell id="YcwsBy4JarNpGmMt0fvK-27" value="" style="endArrow=classic;html=1;" parent="1" edge="1">
          <mxGeometry width="50" height="50" relative="1" as="geometry">
            <mxPoint x="370" y="680" as="sourcePoint" />
            <mxPoint x="80" y="680" as="targetPoint" />
          </mxGeometry>
        </mxCell>
        <mxCell id="YcwsBy4JarNpGmMt0fvK-28" value="找到对应房间 验证玩家资金 分配桌子，或返回错误" style="text;html=1;align=center;verticalAlign=middle;resizable=0;points=[];autosize=1;" parent="1" vertex="1">
          <mxGeometry x="78" y="660" width="290" height="20" as="geometry" />
        </mxCell>
        <mxCell id="YcwsBy4JarNpGmMt0fvK-29" value="" style="endArrow=classic;startArrow=classic;html=1;" parent="1" edge="1">
          <mxGeometry width="50" height="50" relative="1" as="geometry">
            <mxPoint x="78" y="800" as="sourcePoint" />
            <mxPoint x="638" y="800" as="targetPoint" />
          </mxGeometry>
        </mxCell>
        <mxCell id="YcwsBy4JarNpGmMt0fvK-30" value="请求一些喇叭消息，邮件等信息" style="text;html=1;align=center;verticalAlign=middle;resizable=0;points=[];autosize=1;" parent="1" vertex="1">
          <mxGeometry x="180" y="780" width="180" height="20" as="geometry" />
        </mxCell>
        <mxCell id="YcwsBy4JarNpGmMt0fvK-31" value="" style="endArrow=classic;startArrow=classic;html=1;" parent="1" edge="1">
          <mxGeometry width="50" height="50" relative="1" as="geometry">
            <mxPoint x="83" y="720" as="sourcePoint" />
            <mxPoint x="373" y="720" as="targetPoint" />
          </mxGeometry>
        </mxCell>
        <mxCell id="YcwsBy4JarNpGmMt0fvK-32" value="具体游戏协议交互" style="text;html=1;align=center;verticalAlign=middle;resizable=0;points=[];autosize=1;" parent="1" vertex="1">
          <mxGeometry x="155" y="700" width="110" height="20" as="geometry" />
        </mxCell>
        <mxCell id="YcwsBy4JarNpGmMt0fvK-35" value="" style="endArrow=classic;html=1;" parent="1" edge="1">
          <mxGeometry width="50" height="50" relative="1" as="geometry">
            <mxPoint x="80" y="880" as="sourcePoint" />
            <mxPoint x="640" y="880" as="targetPoint" />
          </mxGeometry>
        </mxCell>
        <mxCell id="YcwsBy4JarNpGmMt0fvK-36" value="发起支付请求" style="text;html=1;align=center;verticalAlign=middle;resizable=0;points=[];autosize=1;" parent="1" vertex="1">
          <mxGeometry x="133" y="860" width="90" height="20" as="geometry" />
        </mxCell>
        <mxCell id="YcwsBy4JarNpGmMt0fvK-37" value="" style="endArrow=classic;html=1;" parent="1" edge="1">
          <mxGeometry width="50" height="50" relative="1" as="geometry">
            <mxPoint x="640" y="930" as="sourcePoint" />
            <mxPoint x="370" y="930" as="targetPoint" />
          </mxGeometry>
        </mxCell>
        <mxCell id="YcwsBy4JarNpGmMt0fvK-38" value="支付成功，通知服务器加上游戏币" style="text;html=1;align=center;verticalAlign=middle;resizable=0;points=[];autosize=1;" parent="1" vertex="1">
          <mxGeometry x="415" y="912" width="200" height="20" as="geometry" />
        </mxCell>
        <mxCell id="YcwsBy4JarNpGmMt0fvK-39" value="" style="endArrow=classic;html=1;" parent="1" edge="1">
          <mxGeometry width="50" height="50" relative="1" as="geometry">
            <mxPoint x="370" y="960" as="sourcePoint" />
            <mxPoint x="80" y="960" as="targetPoint" />
          </mxGeometry>
        </mxCell>
        <mxCell id="YcwsBy4JarNpGmMt0fvK-40" value="Text" style="text;html=1;align=center;verticalAlign=middle;resizable=0;points=[];autosize=1;" parent="1" vertex="1">
          <mxGeometry x="173" y="944" width="40" height="20" as="geometry" />
        </mxCell>
      </root>
    </mxGraphModel>
  </diagram>
</mxfile>
